<mxfile host="app.diagrams.net" agent="Mozilla/5.0 (Windows NT 10.0; Win64; x64) AppleWebKit/537.36 (KHTML, like Gecko) Chrome/131.0.0.0 Safari/537.36" version="24.8.9">
  <diagram name="Страница — 1" id="_KknKMzlzBRJMHoOBl-6">
    <mxGraphModel dx="2743" dy="1404" grid="1" gridSize="10" guides="1" tooltips="1" connect="1" arrows="1" fold="1" page="1" pageScale="1" pageWidth="827" pageHeight="1169" math="0" shadow="0">
      <root>
        <mxCell id="0" />
        <mxCell id="1" parent="0" />
        <mxCell id="G1__U824Zd7NwgqffQxT-6" style="edgeStyle=orthogonalEdgeStyle;rounded=0;orthogonalLoop=1;jettySize=auto;html=1;entryX=0.5;entryY=0;entryDx=0;entryDy=0;" edge="1" parent="1" source="G1__U824Zd7NwgqffQxT-1" target="G1__U824Zd7NwgqffQxT-2">
          <mxGeometry relative="1" as="geometry" />
        </mxCell>
        <mxCell id="G1__U824Zd7NwgqffQxT-7" style="edgeStyle=orthogonalEdgeStyle;rounded=0;orthogonalLoop=1;jettySize=auto;html=1;entryX=0.5;entryY=0;entryDx=0;entryDy=0;" edge="1" parent="1" source="G1__U824Zd7NwgqffQxT-1" target="G1__U824Zd7NwgqffQxT-3">
          <mxGeometry relative="1" as="geometry" />
        </mxCell>
        <mxCell id="G1__U824Zd7NwgqffQxT-8" style="edgeStyle=orthogonalEdgeStyle;rounded=0;orthogonalLoop=1;jettySize=auto;html=1;entryX=0.5;entryY=0;entryDx=0;entryDy=0;" edge="1" parent="1" source="G1__U824Zd7NwgqffQxT-1" target="G1__U824Zd7NwgqffQxT-4">
          <mxGeometry relative="1" as="geometry" />
        </mxCell>
        <mxCell id="G1__U824Zd7NwgqffQxT-9" style="edgeStyle=orthogonalEdgeStyle;rounded=0;orthogonalLoop=1;jettySize=auto;html=1;entryX=0.5;entryY=0;entryDx=0;entryDy=0;" edge="1" parent="1" source="G1__U824Zd7NwgqffQxT-1" target="G1__U824Zd7NwgqffQxT-5">
          <mxGeometry relative="1" as="geometry" />
        </mxCell>
        <mxCell id="G1__U824Zd7NwgqffQxT-1" value="" style="image;aspect=fixed;perimeter=ellipsePerimeter;html=1;align=center;shadow=0;dashed=0;fontColor=#4277BB;labelBackgroundColor=default;fontSize=12;spacingTop=3;image=img/lib/ibm/security/data_security.svg;" vertex="1" parent="1">
          <mxGeometry x="300" y="180" width="190" height="190" as="geometry" />
        </mxCell>
        <mxCell id="G1__U824Zd7NwgqffQxT-19" style="edgeStyle=orthogonalEdgeStyle;rounded=0;orthogonalLoop=1;jettySize=auto;html=1;entryX=0.5;entryY=0;entryDx=0;entryDy=0;" edge="1" parent="1" source="G1__U824Zd7NwgqffQxT-2" target="G1__U824Zd7NwgqffQxT-11">
          <mxGeometry relative="1" as="geometry" />
        </mxCell>
        <mxCell id="G1__U824Zd7NwgqffQxT-2" value="публичные" style="rounded=1;whiteSpace=wrap;html=1;" vertex="1" parent="1">
          <mxGeometry x="50" y="540" width="120" height="60" as="geometry" />
        </mxCell>
        <mxCell id="G1__U824Zd7NwgqffQxT-20" style="edgeStyle=orthogonalEdgeStyle;rounded=0;orthogonalLoop=1;jettySize=auto;html=1;entryX=0.5;entryY=0;entryDx=0;entryDy=0;" edge="1" parent="1" source="G1__U824Zd7NwgqffQxT-3" target="G1__U824Zd7NwgqffQxT-12">
          <mxGeometry relative="1" as="geometry" />
        </mxCell>
        <mxCell id="G1__U824Zd7NwgqffQxT-3" value="внутренние" style="rounded=1;whiteSpace=wrap;html=1;" vertex="1" parent="1">
          <mxGeometry x="240" y="540" width="120" height="60" as="geometry" />
        </mxCell>
        <mxCell id="G1__U824Zd7NwgqffQxT-22" style="edgeStyle=orthogonalEdgeStyle;rounded=0;orthogonalLoop=1;jettySize=auto;html=1;entryX=0.5;entryY=0;entryDx=0;entryDy=0;" edge="1" parent="1" source="G1__U824Zd7NwgqffQxT-4" target="G1__U824Zd7NwgqffQxT-14">
          <mxGeometry relative="1" as="geometry" />
        </mxCell>
        <mxCell id="G1__U824Zd7NwgqffQxT-4" value="конфиденциальные" style="rounded=1;whiteSpace=wrap;html=1;" vertex="1" parent="1">
          <mxGeometry x="430" y="540" width="120" height="60" as="geometry" />
        </mxCell>
        <mxCell id="G1__U824Zd7NwgqffQxT-25" style="edgeStyle=orthogonalEdgeStyle;rounded=0;orthogonalLoop=1;jettySize=auto;html=1;entryX=0.5;entryY=0;entryDx=0;entryDy=0;" edge="1" parent="1" source="G1__U824Zd7NwgqffQxT-5" target="G1__U824Zd7NwgqffQxT-17">
          <mxGeometry relative="1" as="geometry" />
        </mxCell>
        <mxCell id="G1__U824Zd7NwgqffQxT-5" value="секретные" style="rounded=1;whiteSpace=wrap;html=1;" vertex="1" parent="1">
          <mxGeometry x="620" y="540" width="120" height="60" as="geometry" />
        </mxCell>
        <mxCell id="G1__U824Zd7NwgqffQxT-28" style="edgeStyle=orthogonalEdgeStyle;rounded=0;orthogonalLoop=1;jettySize=auto;html=1;" edge="1" parent="1" source="G1__U824Zd7NwgqffQxT-11" target="G1__U824Zd7NwgqffQxT-26">
          <mxGeometry relative="1" as="geometry" />
        </mxCell>
        <mxCell id="G1__U824Zd7NwgqffQxT-11" value="Витрина продаж" style="rounded=1;whiteSpace=wrap;html=1;" vertex="1" parent="1">
          <mxGeometry x="-150" y="690" width="120" height="60" as="geometry" />
        </mxCell>
        <mxCell id="G1__U824Zd7NwgqffQxT-33" style="edgeStyle=orthogonalEdgeStyle;rounded=0;orthogonalLoop=1;jettySize=auto;html=1;entryX=0.5;entryY=0;entryDx=0;entryDy=0;" edge="1" parent="1" source="G1__U824Zd7NwgqffQxT-12" target="G1__U824Zd7NwgqffQxT-31">
          <mxGeometry relative="1" as="geometry" />
        </mxCell>
        <mxCell id="G1__U824Zd7NwgqffQxT-12" value="внутренние отчёты" style="rounded=1;whiteSpace=wrap;html=1;" vertex="1" parent="1">
          <mxGeometry x="240" y="700" width="120" height="60" as="geometry" />
        </mxCell>
        <mxCell id="G1__U824Zd7NwgqffQxT-39" style="edgeStyle=orthogonalEdgeStyle;rounded=0;orthogonalLoop=1;jettySize=auto;html=1;entryX=0.5;entryY=0;entryDx=0;entryDy=0;" edge="1" parent="1" source="G1__U824Zd7NwgqffQxT-14" target="G1__U824Zd7NwgqffQxT-37">
          <mxGeometry relative="1" as="geometry" />
        </mxCell>
        <mxCell id="G1__U824Zd7NwgqffQxT-14" value="коммерческая информация" style="rounded=1;whiteSpace=wrap;html=1;" vertex="1" parent="1">
          <mxGeometry x="430" y="690" width="120" height="60" as="geometry" />
        </mxCell>
        <mxCell id="G1__U824Zd7NwgqffQxT-45" style="edgeStyle=orthogonalEdgeStyle;rounded=0;orthogonalLoop=1;jettySize=auto;html=1;entryX=0.5;entryY=0;entryDx=0;entryDy=0;" edge="1" parent="1" source="G1__U824Zd7NwgqffQxT-17" target="G1__U824Zd7NwgqffQxT-43">
          <mxGeometry relative="1" as="geometry" />
        </mxCell>
        <mxCell id="G1__U824Zd7NwgqffQxT-17" value="планы развития" style="rounded=1;whiteSpace=wrap;html=1;" vertex="1" parent="1">
          <mxGeometry x="840" y="690" width="120" height="60" as="geometry" />
        </mxCell>
        <mxCell id="G1__U824Zd7NwgqffQxT-30" style="edgeStyle=orthogonalEdgeStyle;rounded=0;orthogonalLoop=1;jettySize=auto;html=1;entryX=0.5;entryY=0;entryDx=0;entryDy=0;" edge="1" parent="1" source="G1__U824Zd7NwgqffQxT-26" target="G1__U824Zd7NwgqffQxT-29">
          <mxGeometry relative="1" as="geometry" />
        </mxCell>
        <mxCell id="G1__U824Zd7NwgqffQxT-26" value="Искажение" style="rounded=1;whiteSpace=wrap;html=1;" vertex="1" parent="1">
          <mxGeometry x="-150" y="820" width="120" height="60" as="geometry" />
        </mxCell>
        <mxCell id="G1__U824Zd7NwgqffQxT-29" value="Значительный&lt;br&gt;Нарушение репутации компании" style="rounded=1;whiteSpace=wrap;html=1;" vertex="1" parent="1">
          <mxGeometry x="-150" y="950" width="120" height="60" as="geometry" />
        </mxCell>
        <mxCell id="G1__U824Zd7NwgqffQxT-34" style="edgeStyle=orthogonalEdgeStyle;rounded=0;orthogonalLoop=1;jettySize=auto;html=1;entryX=0.5;entryY=0;entryDx=0;entryDy=0;" edge="1" parent="1" source="G1__U824Zd7NwgqffQxT-31" target="G1__U824Zd7NwgqffQxT-32">
          <mxGeometry relative="1" as="geometry" />
        </mxCell>
        <mxCell id="G1__U824Zd7NwgqffQxT-31" value="Утечка" style="rounded=1;whiteSpace=wrap;html=1;" vertex="1" parent="1">
          <mxGeometry x="240" y="830" width="120" height="60" as="geometry" />
        </mxCell>
        <mxCell id="G1__U824Zd7NwgqffQxT-32" value="Значительный&lt;br&gt;Конкуренты могут получить преимущества" style="rounded=1;whiteSpace=wrap;html=1;" vertex="1" parent="1">
          <mxGeometry x="240" y="950" width="120" height="60" as="geometry" />
        </mxCell>
        <mxCell id="G1__U824Zd7NwgqffQxT-40" style="edgeStyle=orthogonalEdgeStyle;rounded=0;orthogonalLoop=1;jettySize=auto;html=1;entryX=0.5;entryY=0;entryDx=0;entryDy=0;" edge="1" parent="1" source="G1__U824Zd7NwgqffQxT-37" target="G1__U824Zd7NwgqffQxT-38">
          <mxGeometry relative="1" as="geometry" />
        </mxCell>
        <mxCell id="G1__U824Zd7NwgqffQxT-37" value="Утечка" style="rounded=1;whiteSpace=wrap;html=1;" vertex="1" parent="1">
          <mxGeometry x="430" y="830" width="120" height="60" as="geometry" />
        </mxCell>
        <mxCell id="G1__U824Zd7NwgqffQxT-38" value="Критический&lt;br&gt;Угрозы штрафов" style="rounded=1;whiteSpace=wrap;html=1;" vertex="1" parent="1">
          <mxGeometry x="430" y="950" width="120" height="60" as="geometry" />
        </mxCell>
        <mxCell id="G1__U824Zd7NwgqffQxT-46" style="edgeStyle=orthogonalEdgeStyle;rounded=0;orthogonalLoop=1;jettySize=auto;html=1;entryX=0.5;entryY=0;entryDx=0;entryDy=0;" edge="1" parent="1" source="G1__U824Zd7NwgqffQxT-43" target="G1__U824Zd7NwgqffQxT-44">
          <mxGeometry relative="1" as="geometry" />
        </mxCell>
        <mxCell id="G1__U824Zd7NwgqffQxT-43" value="Утечка" style="rounded=1;whiteSpace=wrap;html=1;" vertex="1" parent="1">
          <mxGeometry x="840" y="830" width="120" height="60" as="geometry" />
        </mxCell>
        <mxCell id="G1__U824Zd7NwgqffQxT-44" value="Критический" style="rounded=1;whiteSpace=wrap;html=1;" vertex="1" parent="1">
          <mxGeometry x="840" y="950" width="120" height="60" as="geometry" />
        </mxCell>
      </root>
    </mxGraphModel>
  </diagram>
</mxfile>
